<svg xmlns="http://www.w3.org/2000/svg" width="390" height="640" viewBox="0 0 390 640" fill="none">
  <rect width="390" height="640" fill="#ffffff"/>
  <rect width="390" height="56" fill="#f7f9f8"/>
  <rect x="20" y="20" width="96" height="16" rx="4" fill="#8c3232" opacity="0.85"/>
  <rect x="330" y="18" width="20" height="20" rx="10" fill="#dde6e2"/>
  <rect x="20" y="84" width="180" height="18" rx="4" fill="#1f2a26"/>
  <rect x="20" y="112" width="260" height="12" rx="4" fill="#9aa9a3"/>
  <rect x="20" y="152" width="350" height="190" rx="12" fill="#ffffff" stroke="#dde6e2" stroke-width="2"/>
  <rect x="36" y="168" width="150" height="150" rx="8" fill="#e8ece9"/>
  <path d="M60 290l34-44 26 30 18-20 30 34z" fill="#c5d0cb"/>
  <circle cx="148" cy="198" r="12" fill="#c5d0cb"/>
  <rect x="204" y="168" width="150" height="150" rx="8" fill="#f7f9f8" stroke="#dde6e2" stroke-width="2" stroke-dasharray="6 6"/>
  <circle cx="279" cy="232" r="16" stroke="#c5d0cb" stroke-width="4" stroke-dasharray="60 40"/>
  <rect x="236" y="266" width="86" height="10" rx="4" fill="#c5d0cb"/>
  <rect x="20" y="366" width="350" height="64" rx="12" fill="#fef2f2" stroke="#fecaca" stroke-width="2"/>
  <circle cx="46" cy="398" r="10" fill="#dc2626"/>
  <rect x="68" y="386" width="190" height="10" rx="4" fill="#991b1b"/>
  <rect x="68" y="404" width="240" height="8" rx="4" fill="#f87171"/>
  <rect x="20" y="560" width="350" height="48" rx="10" fill="#8c3232"/>
  <rect x="150" y="578" width="90" height="12" rx="4" fill="#ffffff" opacity="0.9"/>
</svg>
